:FULLY-SPECIFIED
:FORCE-ALL-JOINTS-BE-3DOF
:DEGREES
227
root 8.71398 16.3592 -5.32216 9.16124 -3.55605 -5.77419
lfemur -46.127 0.99606 -12.6224
ltibia 23.5328 0 0
lfoot -14.1512 13.0875 0
ltoes -13.8674 0 0
rfemur 15.0957 4.96859 28.7554
rtibia 6.50495 0 0
rfoot -5.22538 6.98725 0
rtoes -11.6649 0 0
lowerback -7.87995 2.789 2.92645
upperback -1.4653 3.32024 3.34322
thorax 2.85412 1.68276 2.15876
lowerneck -16.2635 -6.07817 -14.4078
upperneck 15.2001 -7.69739 14.9703
head 8.58702 -3.10837 6.54677
lclavicle -3.71825e-15 -3.53533e-15 0
lhumerus -50.3349 -8.01023 94.1283
lradius 23.0726 0 0
lwrist 1.67886 0 0
lhand -12.692 -30.0325 0
lfingers 7.12502 0 0
lthumb 13.3895 -0.493695 0
rclavicle -3.71825e-15 -3.53533e-15 0
rhumerus -40.7626 13.1084 -86.123
rradius 50.9428 0 0
rwrist -26.7911 0 0
rhand -31.0875 -28.6759 0
rfingers 7.12502 0 0
rthumb -4.36768 -58.6105 0
228
root 8.74646 16.3583 -5.14953 9.21028 -3.75586 -5.60038
lfemur -46.129 1.39075 -13.1187
ltibia 24.3244 0 0
lfoot -13.8514 12.7407 0
ltoes -12.9779 0 0
rfemur 15.0784 4.76217 28.2855
rtibia 7.72724 0 0
rfoot -4.17326 6.97513 0
rtoes -11.8619 0 0
lowerback -7.80435 2.78645 2.76559
upperback -1.55388 3.33523 3.26088
thorax 2.71459 1.69081 2.15797
lowerneck -16.4042 -6.07231 -14.3755
upperneck 15.3173 -7.68587 14.9402
head 8.64682 -3.09745 6.53438
lclavicle -1.55827e-15 -2.1491e-15 0
lhumerus -50.2361 -7.81667 93.8794
lradius 22.8473 0 0
lwrist 1.25732 0 0
lhand -12.4829 -29.7626 0
lfingers 7.12502 0 0
lthumb 13.5909 -0.238123 0
rclavicle -1.55827e-15 -2.1491e-15 0
rhumerus -41.1004 12.9804 -86.2761
rradius 50.472 0 0
rwrist -26.7612 0 0
rhand -31.0312 -28.6396 0
rfingers 7.12502 0 0
rthumb -4.31327 -58.5753 0
229
root 8.77961 16.3578 -4.97595 9.25878 -3.95354 -5.41599
lfemur -46.1161 1.8059 -13.6414
ltibia 25.1775 0 0
lfoot -13.5432 12.3801 0
ltoes -12.0482 0 0
rfemur 15.0239 4.54711 27.797
rtibia 9.01983 0 0
rfoot -3.10198 6.95467 0
rtoes -12.0677 0 0
lowerback -7.72194 2.78183 2.59616
upperback -1.64588 3.34852 3.1754
thorax 2.56753 1.698 2.15817
lowerneck -16.5473 -6.06686 -14.3432
upperneck 15.4372 -7.67492 14.91
head 8.70811 -3.08672 6.52198
lclavicle 6.68039e-16 -7.26801e-16 0
lhumerus -50.1291 -7.62077 93.6234
lradius 22.624 0 0
lwrist 0.836675 0 0
lhand -12.27 -29.4764 0
lfingers 7.12502 0 0
lthumb 13.796 0.0335569 0
rclavicle 6.68039e-16 -7.26801e-16 0
rhumerus -41.4488 12.8427 -86.4256
rradius 49.9784 0 0
rwrist -26.7253 0 0
rhand -30.9745 -28.5989 0
rfingers 7.12502 0 0
rthumb -4.25858 -58.5356 0
230
root 8.81333 16.3577 -4.80164 9.30631 -4.14842 -5.22221
lfemur -46.0873 2.2382 -14.187
ltibia 26.083 0 0
lfoot -13.229 12.0078 0
ltoes -11.0848 0 0
rfemur 14.9325 4.32461 27.2928
rtibia 10.3746 0 0
rfoot -2.01878 6.92535 0
rtoes -12.2808 0 0
lowerback -7.63351 2.77498 2.41923
upperback -1.7405 3.35975 3.08733
thorax 2.41426 1.70417 2.15938
lowerneck -16.6924 -6.06161 -14.3109
upperneck 15.5596 -7.66427 14.8797
head 8.77068 -3.07609 6.50955
lclavicle 2.94291e-15 7.23886e-16 0
lhumerus -50.0128 -7.42403 93.3616
lradius 22.4035 0 0
lwrist 0.418405 0 0
lhand -12.0548 -29.176 0
lfingers 7.12502 0 0
lthumb 14.0034 0.319141 0
rclavicle 2.94291e-15 7.23886e-16 0
rhumerus -41.8056 12.6965 -86.5709
rradius 49.4658 0 0
rwrist -26.6839 0 0
rhand -30.9177 -28.5539 0
rfingers 7.12502 0 0
rthumb -4.20368 -58.4917 0
231
root 8.84752 16.3578 -4.62678 9.35247 -4.3398 -5.0202
lfemur -46.0418 2.68435 -14.7522
ltibia 27.032 0 0
lfoot -12.9113 11.6261 0
ltoes -10.0943 0 0
rfemur 14.8049 4.09586 26.7758
rtibia 11.7836 0 0
rfoot -0.930852 6.88664 0
rtoes -12.5001 0 0
lowerback -7.53983 2.76574 2.23587
upperback -1.83697 3.36858 2.99724
thorax 2.25609 1.70912 2.16161
lowerneck -16.839 -6.05638 -14.2784
upperneck 15.6842 -7.65366 14.849
head 8.83436 -3.06545 6.49707
lclavicle 5.24861e-15 2.19527e-15 0
lhumerus -49.8859 -7.22798 93.095
lradius 22.1865 0 0
lwrist 0.00397509 0 0
lhand -11.8384 -28.8639 0
lfingers 7.12502 0 0
lthumb 14.2119 0.616426 0
rclavicle 5.24861e-15 2.19527e-15 0
rhumerus -42.169 12.5428 -86.7116
rradius 48.9374 0 0
rwrist -26.6374 0 0
rhand -30.8607 -28.5047 0
rfingers 7.12502 0 0
rthumb -4.14866 -58.4435 0
232
root 8.88208 16.3583 -4.4516 9.39685 -4.52701 -4.81115
lfemur -45.9788 3.14105 -15.3334
ltibia 28.0153 0 0
lfoot -12.5922 11.2373 0
ltoes -9.08325 0 0
rfemur 14.6415 3.86207 26.2489
rtibia 13.2386 0 0
rfoot 0.15458 6.83801 0
rtoes -12.724 0 0
lowerback -7.44166 2.75396 2.04715
upperback -1.93449 3.37465 2.90567
thorax 2.09434 1.71266 2.16488
lowerneck -16.9869 -6.05096 -14.2457
upperneck 15.8108 -7.64283 14.8179
head 8.89896 -3.05473 6.48449
lclavicle 7.56737e-15 3.67967e-15 0
lhumerus -49.7472 -7.03413 92.8248
lradius 21.974 0 0
lwrist -0.405143 0 0
lhand -11.6223 -28.5422 0
lfingers 7.12502 0 0
lthumb 14.4201 0.923209 0
rclavicle 7.56737e-15 3.67967e-15 0
rhumerus -42.5368 12.3828 -86.8473
rradius 48.3969 0 0
rwrist -26.5862 0 0
rhand -30.8037 -28.4513 0
rfingers 7.12502 0 0
rthumb -4.09362 -58.3911 0
233
root 8.91691 16.3592 -4.27629 9.43901 -4.70936 -4.59624
lfemur -45.8974 3.605 -15.9271
ltibia 29.0241 0 0
lfoot -12.2743 10.8435 0
ltoes -8.05822 0 0
rfemur 14.4428 3.62444 25.7152
rtibia 14.7316 0 0
rfoot 1.2303 6.77893 0
rtoes -12.9514 0 0
lowerback -7.3398 2.73947 1.85414
upperback -2.03227 3.3776 2.81318
thorax 1.9303 1.71462 2.16919
lowerneck -17.1356 -6.04516 -14.2127
upperneck 15.9392 -7.63152 14.7861
head 8.96429 -3.04382 6.47179
lclavicle 9.88144e-15 5.16939e-15 0
lhumerus -49.5956 -6.84401 92.5521
lradius 21.7665 0 0
lwrist -0.807478 0 0
lhand -11.4076 -28.2133 0
lfingers 7.12502 0 0
lthumb 14.6269 1.23728 0
rclavicle 9.88144e-15 5.16939e-15 0
rhumerus -42.907 12.2175 -86.9774
rradius 47.8476 0 0
rwrist -26.5307 0 0
rhand -30.7468 -28.3937 0
rfingers 7.12502 0 0
rthumb -4.03866 -58.3347 0
234
root 8.95191 16.3604 -4.10107 9.47856 -4.88617 -4.37664
lfemur -45.7967 4.0729 -16.53
ltibia 30.0493 0 0
lfoot -11.9598 10.447 0
ltoes -7.02577 0 0
rfemur 14.2094 3.38415 25.1776
rtibia 16.2545 0 0
rfoot 2.2891 6.70888 0
rtoes -13.1807 0 0
lowerback -7.235 2.72211 1.65791
upperback -2.12954 3.37707 2.72034
thorax 1.7653 1.7148 2.17458
lowerneck -17.2848 -6.03878 -14.1792
upperneck 16.0691 -7.61946 14.7537
head 9.03016 -3.03262 6.45895
lclavicle 1.21731e-14 6.65675e-15 0
lhumerus -49.4299 -6.65913 92.278
lradius 21.5651 0 0
lwrist -1.20156 0 0
lhand -11.1958 -27.8796 0
lfingers 7.12502 0 0
lthumb 14.831 1.55645 0
rclavicle 1.21731e-14 6.65675e-15 0
rhumerus -43.2776 12.0479 -87.1014
rradius 47.2933 0 0
rwrist -26.4715 0 0
rhand -30.6901 -28.3322 0
rfingers 7.12502 0 0
rthumb -3.98385 -58.2742 0
235
root 8.98699 16.362 -3.92613 9.51507 -5.05676 -4.15352
lfemur -45.6758 4.54144 -17.1385
ltibia 31.0818 0 0
lfoot -11.6512 10.05 0
ltoes -5.99246 0 0
rfemur 13.9418 3.14242 24.639
rtibia 17.7993 0 0
rfoot 3.32377 6.62732 0
rtoes -13.4108 0 0
lowerback -7.12804 2.70172 1.45953
upperback -2.2255 3.3727 2.6277
thorax 1.60064 1.71302 2.18104
lowerneck -17.434 -6.03163 -14.1452
upperneck 16.2004 -7.6064 14.7204
head 9.09639 -3.02106 6.44593
lclavicle 1.44245e-14 8.13406e-15 0
lhumerus -49.2488 -6.48102 92.0036
lradius 21.3704 0 0
lwrist -1.58592 0 0
lhand -10.9881 -27.5432 0
lfingers 7.12502 0 0
lthumb 15.0311 1.8785 0
rclavicle 1.44245e-14 8.13406e-15 0
rhumerus -43.6466 11.8751 -87.2188
rradius 46.7372 0 0
rwrist -26.4089 0 0
rhand -30.6336 -28.2667 0
rfingers 7.12502 0 0
rthumb -3.92929 -58.2097 0
